<svg
    xmlns="http://www.w3.org/2000/svg"
    xmlns:xlink="http://www.w3.org/1999/xlink"
    viewBox="0 0 144 144"
    width="144"
    height="144"
    preserveAspectRatio="xMidYMid slice"
    style="width: 100%; height: 100%; transform: translate3d(0px, 0px, 0px); content-visibility: visible;"
>
    <defs>
        <clipPath id="__lottie_element_2220">
            <rect width="144" height="144" x="0" y="0"></rect>
        </clipPath>
    </defs>
    <g clip-path="url(#__lottie_element_2220)">
        <g transform="matrix(2,0,0,2,30,38.99899673461914)" opacity="0.75" style="display: block;">
            <g opacity="1" transform="matrix(1,0,0,1,21.5,16.86400032043457)">
                <path
                    fill="rgb(255,254,255)"
                    fill-opacity="1"
                    d=" M-2.509000062942505,16.136999130249023 C-3.066999912261963,16.136999130249023 -3.6389999389648438,15.977999687194824 -4.164000034332275,15.628000259399414 C-4.164000034332275,15.628000259399414 -14.104999542236328,7 -14.104999542236328,7 C-14.104999542236328,7 -18.5,7 -18.5,7 C-20.156999588012695,7 -21.5,5.6570000648498535 -21.5,4 C-21.5,4 -21.5,-4 -21.5,-4 C-21.5,-5.6570000648498535 -20.156999588012695,-7 -18.5,-7 C-18.5,-7 -14.104999542236328,-7 -14.104999542236328,-7 C-14.104999542236328,-7 -4.164000034332275,-15.628000259399414 -4.164000034332275,-15.628000259399414 C-3.6389999389648438,-15.977999687194824 -3.065999984741211,-16.13599967956543 -2.507999897003174,-16.13599967956543 C-0.9480000138282776,-16.13599967956543 0.5,-14.897000312805176 0.5,-13.131999969482422 C0.5,-13.131999969482422 0.5,13.131999969482422 0.5,13.131999969482422 C0.5,14.895999908447266 -0.9490000009536743,16.136999130249023 -2.509000062942505,16.136999130249023z"
                ></path>
            </g>
        </g>
        <g
            transform="matrix(1.5642290115356445,0,0,1.5642290115356445,39.58695983886719,46.190223693847656)"
            opacity="0.7668282890316823"
            style="display: block;"
        >
            <g opacity="1" transform="matrix(1,0,0,1,21.5,16.86400032043457)">
                <path
                    fill="rgb(255,254,255)"
                    fill-opacity="1"
                    d=" M7.870999813079834,9.633000373840332 C7.5920000076293945,9.633000373840332 7.311999797821045,9.508000373840332 7.118000030517578,9.272000312805176 C7.118000030517578,9.272000312805176 5.8480000495910645,7.7270002365112305 5.8480000495910645,7.7270002365112305 C5.495999813079834,7.300000190734863 5.561999797821045,6.675000190734863 5.947999954223633,6.2789998054504395 C7.5289998054504395,4.65500020980835 8.5,2.440999984741211 8.5,0 C8.5,-2.441999912261963 7.5289998054504395,-4.65500020980835 5.947999954223633,-6.2789998054504395 C5.561999797821045,-6.675000190734863 5.495999813079834,-7.302000045776367 5.8480000495910645,-7.728000164031982 C5.8480000495910645,-7.728000164031982 7.118000030517578,-9.27299976348877 7.118000030517578,-9.27299976348877 C7.311999797821045,-9.508999824523926 7.5920000076293945,-9.633000373840332 7.870999813079834,-9.633000373840332 C8.097000122070312,-9.633000373840332 8.321999549865723,-9.552000045776367 8.5,-9.380999565124512 C10.963000297546387,-7.017000198364258 12.5,-3.687000036239624 12.5,0 C12.5,3.687999963760376 10.963000297546387,7.017000198364258 8.5,9.380999565124512 C8.321999549865723,9.552000045776367 8.097000122070312,9.633000373840332 7.870999813079834,9.633000373840332z"
                ></path>
            </g>
        </g>
        <g
            transform="matrix(2.1819348335266113,0,0,2.1819348335266113,25.997432708740234,35.99807357788086)"
            opacity="0.7840624364599963"
            style="display: block;"
        >
            <g opacity="1" transform="matrix(1,0,0,1,21.5,16.86400032043457)">
                <path
                    fill="rgb(255,254,255)"
                    fill-opacity="1"
                    d=" M14.5600004196167,14.821999549865723 C14.282999992370605,14.821999549865723 14.006999969482422,14.70199966430664 13.810999870300293,14.472000122070312 C13.810999870300293,14.472000122070312 12.515000343322754,12.949999809265137 12.515000343322754,12.949999809265137 C12.156999588012695,12.529000282287598 12.208999633789062,11.899999618530273 12.605999946594238,11.515999794006348 C15.62600040435791,8.604000091552734 17.5,4.521999835968018 17.5,0 C17.5,-4.521999835968018 15.62600040435791,-8.604999542236328 12.605999946594238,-11.517000198364258 C12.208999633789062,-11.899999618530273 12.156999588012695,-12.529999732971191 12.515000343322754,-12.949999809265137 C12.515000343322754,-12.949999809265137 13.810999870300293,-14.472999572753906 13.810999870300293,-14.472999572753906 C14.006999969482422,-14.70300006866455 14.284000396728516,-14.821999549865723 14.560999870300293,-14.821999549865723 C14.791000366210938,-14.821999549865723 15.020999908447266,-14.739999771118164 15.204000473022461,-14.567999839782715 C19.07699966430664,-10.92199993133545 21.5,-5.743000030517578 21.5,0 C21.5,5.743000030517578 19.07699966430664,10.920999526977539 15.204000473022461,14.567000389099121 C15.020999908447266,14.73900032043457 14.791000366210938,14.821999549865723 14.5600004196167,14.821999549865723z"
                ></path>
            </g>
        </g>
    </g>
</svg>