<svg
    xmlns="http://www.w3.org/2000/svg"
    xmlns:xlink="http://www.w3.org/1999/xlink"
    viewBox="0 0 144 144"
    width="144"
    height="144"
    preserveAspectRatio="xMidYMid slice"
    style="width: 100%; height: 100%; transform: translate3d(0px, 0px, 0px); content-visibility: visible;"
>
    <defs>
        <clipPath id="__lottie_element_3842">
            <rect width="144" height="144" x="0" y="0"></rect>
        </clipPath>
        <clipPath id="__lottie_element_3844">
            <path d="M0,0 L144,0 L144,144 L0,144z"></path>
        </clipPath>
        <clipPath id="__lottie_element_3848">
            <path d="M0,0 L8,0 L8,46 L0,46z"></path>
        </clipPath>
        <g id="__lottie_element_3851">
            <g style="display: block;" transform="matrix(1,0,0,1,4,23)" opacity="1">
                <g opacity="1" transform="matrix(1,0,0,1,0,0)">
                    <path
                        fill="rgb(3,186,42)"
                        fill-opacity="1"
                        d=" M4,-23 C4,-23 4,23 4,23 C4,23 -4,23 -4,23 C-4,23 -4,-23 -4,-23 C-4,-23 4,-23 4,-23z"
                    ></path>
                    <path
                        stroke-linecap="butt"
                        stroke-linejoin="miter"
                        fill-opacity="0"
                        stroke-miterlimit="4"
                        stroke="rgb(255,255,255)"
                        stroke-opacity="1"
                        stroke-width="0"
                        d=" M4,-23 C4,-23 4,23 4,23 C4,23 -4,23 -4,23 C-4,23 -4,-23 -4,-23 C-4,-23 4,-23 4,-23z"
                    ></path>
                </g>
            </g>
        </g>
        <mask id="__lottie_element_3851_1" mask-type="alpha">
            <use xlink:href="#__lottie_element_3851"></use>
        </mask>
        <clipPath id="__lottie_element_3858">
            <path d="M0,0 L8,0 L8,46 L0,46z"></path>
        </clipPath>
        <g id="__lottie_element_3861">
            <g style="display: block;" transform="matrix(1,0,0,1,4,23)" opacity="1">
                <g opacity="1" transform="matrix(1,0,0,1,0,0)">
                    <path
                        fill="rgb(3,186,42)"
                        fill-opacity="1"
                        d=" M4,-23 C4,-23 4,23 4,23 C4,23 -4,23 -4,23 C-4,23 -4,-23 -4,-23 C-4,-23 4,-23 4,-23z"
                    ></path>
                    <path
                        stroke-linecap="butt"
                        stroke-linejoin="miter"
                        fill-opacity="0"
                        stroke-miterlimit="4"
                        stroke="rgb(255,255,255)"
                        stroke-opacity="1"
                        stroke-width="0"
                        d=" M4,-23 C4,-23 4,23 4,23 C4,23 -4,23 -4,23 C-4,23 -4,-23 -4,-23 C-4,-23 4,-23 4,-23z"
                    ></path>
                </g>
            </g>
        </g>
        <mask id="__lottie_element_3861_1" mask-type="alpha">
            <use xlink:href="#__lottie_element_3861"></use>
        </mask>
    </defs>
    <g clip-path="url(#__lottie_element_3842)">
        <g transform="matrix(2,0,0,2,30,38.99899673461914)" opacity="0.75" style="display: block;">
            <g opacity="1" transform="matrix(1,0,0,1,21.5,16.86400032043457)">
                <path
                    fill="rgb(255,254,255)"
                    fill-opacity="1"
                    d=" M-2.509000062942505,16.136999130249023 C-3.066999912261963,16.136999130249023 -3.6389999389648438,15.977999687194824 -4.164000034332275,15.628000259399414 C-4.164000034332275,15.628000259399414 -14.104999542236328,7 -14.104999542236328,7 C-14.104999542236328,7 -18.5,7 -18.5,7 C-20.156999588012695,7 -21.5,5.6570000648498535 -21.5,4 C-21.5,4 -21.5,-4 -21.5,-4 C-21.5,-5.6570000648498535 -20.156999588012695,-7 -18.5,-7 C-18.5,-7 -14.104999542236328,-7 -14.104999542236328,-7 C-14.104999542236328,-7 -4.164000034332275,-15.628000259399414 -4.164000034332275,-15.628000259399414 C-3.6389999389648438,-15.977999687194824 -3.065999984741211,-16.13599967956543 -2.507999897003174,-16.13599967956543 C-0.9480000138282776,-16.13599967956543 0.5,-14.897000312805176 0.5,-13.131999969482422 C0.5,-13.131999969482422 0.5,13.131999969482422 0.5,13.131999969482422 C0.5,14.895999908447266 -0.9490000009536743,16.136999130249023 -2.509000062942505,16.136999130249023z"
                ></path>
            </g>
        </g>
        <g
            clip-path="url(#__lottie_element_3844)"
            transform="matrix(1,0,0,1,0,0)"
            opacity="0.75"
            style="display: block;"
        >
            <g
                clip-path="url(#__lottie_element_3858)"
                style="display: block;"
                transform="matrix(0.7071067690849304,-0.7071067690849304,0.7071067690849304,0.7071067690849304,81.90811920166016,58.564971923828125)"
                opacity="1"
            >
                <g mask="url(#__lottie_element_3861_1)" style="display: block;">
                    <g transform="matrix(1,0,0,1,-13.625,14.125)" opacity="1">
                        <g opacity="1" transform="matrix(1,0,0,1,17.625,8.875)">
                            <path
                                fill="rgb(255,255,255)"
                                fill-opacity="1"
                                d=" M4,-21 C4,-21 4,21 4,21 C4,22.10379981994629 3.103800058364868,23 2,23 C2,23 -2,23 -2,23 C-3.103800058364868,23 -4,22.10379981994629 -4,21 C-4,21 -4,-21 -4,-21 C-4,-22.10379981994629 -3.103800058364868,-23 -2,-23 C-2,-23 2,-23 2,-23 C3.103800058364868,-23 4,-22.10379981994629 4,-21z"
                            ></path>
                        </g>
                    </g>
                </g>
            </g>
            <g
                clip-path="url(#__lottie_element_3848)"
                style="display: block;"
                transform="matrix(0.7071067690849304,0.7071067690849304,-0.7071067690849304,0.7071067690849304,114.43502807617188,52.908119201660156)"
                opacity="1"
            >
                <g mask="url(#__lottie_element_3851_1)" style="display: block;">
                    <g transform="matrix(1,0,0,1,-13.625,14.125)" opacity="1">
                        <g opacity="1" transform="matrix(1,0,0,1,17.625,8.875)">
                            <path
                                fill="rgb(255,255,255)"
                                fill-opacity="1"
                                d=" M4,-21 C4,-21 4,21 4,21 C4,22.10379981994629 3.103800058364868,23 2,23 C2,23 -2,23 -2,23 C-3.103800058364868,23 -4,22.10379981994629 -4,21 C-4,21 -4,-21 -4,-21 C-4,-22.10379981994629 -3.103800058364868,-23 -2,-23 C-2,-23 2,-23 2,-23 C3.103800058364868,-23 4,-22.10379981994629 4,-21z"
                            ></path>
                        </g>
                    </g>
                </g>
            </g>
        </g>
    </g>
</svg>