<svg
    fill="currentColor"
    color="inherit"
    font-size="inherit"
    viewBox="0 0 48 48"
    xmlns="http://www.w3.org/2000/svg"
    width="1em"
    height="1em"
    style="fill: rgb(255, 255, 255); width: 21px; height: 21px;"
>
    <path d="M12.53 30.75c1.17.64 2.51.97 4.04.97 1.91 0 3.46-.42 4.64-1.24a5.89 5.89 0 0 0 2.3-3.62l-3.86-1.13c-.22.78-.6 1.39-1.13 1.8-.53.41-1.19.62-1.97.62-.7 0-1.31-.17-1.83-.5-.5-.34-.9-.82-1.18-1.44a5.7 5.7 0 0 1-.4-2.22c0-.87.14-1.61.4-2.23.28-.61.67-1.09 1.18-1.43.5-.33 1.1-.5 1.8-.5.8 0 1.47.21 2 .63.53.4.91 1 1.13 1.78l3.91-1.15a5.73 5.73 0 0 0-2.35-3.57 7.87 7.87 0 0 0-4.64-1.26c-1.53 0-2.87.32-4.04.97a6.85 6.85 0 0 0-2.68 2.7A8.23 8.23 0 0 0 8.88 24c0 1.52.32 2.87.97 4.03a7 7 0 0 0 2.68 2.73ZM28.12 30.75c1.16.64 2.5.97 4.03.97 1.92 0 3.46-.42 4.64-1.24a5.89 5.89 0 0 0 2.3-3.62l-3.86-1.13c-.22.78-.6 1.39-1.13 1.8-.53.41-1.19.62-1.97.62-.7 0-1.31-.17-1.83-.5-.5-.34-.9-.82-1.18-1.44a5.7 5.7 0 0 1-.4-2.22c0-.87.14-1.61.4-2.23.28-.61.68-1.09 1.18-1.43.5-.33 1.1-.5 1.8-.5.8 0 1.47.21 2 .63.53.4.91 1 1.13 1.78l3.91-1.15a5.73 5.73 0 0 0-2.35-3.57 7.87 7.87 0 0 0-4.64-1.26c-1.53 0-2.87.32-4.03.97a6.85 6.85 0 0 0-2.7 2.7 8.23 8.23 0 0 0-.96 4.06c0 1.52.32 2.87.97 4.03a7 7 0 0 0 2.69 2.73Z"></path>
    <path d="M2 18.2c0-3.92 0-5.88.76-7.38a7 7 0 0 1 3.06-3.06C7.32 7 9.28 7 13.2 7h21.6c3.92 0 5.88 0 7.38.76a7 7 0 0 1 3.06 3.06c.76 1.5.76 3.46.76 7.38v11.6c0 3.92 0 5.88-.76 7.38a7 7 0 0 1-3.06 3.06c-1.5.76-3.46.76-7.38.76H13.2c-3.92 0-5.88 0-7.38-.76a7 7 0 0 1-3.06-3.06C2 35.68 2 33.72 2 29.8V18.2ZM13.2 11c-2.03 0-3.3 0-4.27.08-.92.08-1.2.2-1.3.25a3 3 0 0 0-1.3 1.3c-.05.1-.17.38-.25 1.3C6 14.89 6 16.17 6 18.2v11.6c0 2.03 0 3.3.08 4.27.08.92.2 1.2.25 1.3a3 3 0 0 0 1.3 1.3c.1.05.38.17 1.3.25.96.08 2.24.08 4.27.08h21.6c2.03 0 3.3 0 4.27-.08.92-.08 1.2-.2 1.3-.25a3 3 0 0 0 1.3-1.3c.05-.1.17-.38.25-1.3.08-.96.08-2.24.08-4.27V18.2c0-2.03 0-3.3-.08-4.27-.08-.92-.2-1.2-.25-1.3a3 3 0 0 0-1.3-1.3c-.1-.05-.38-.17-1.3-.25-.96-.08-2.24-.08-4.27-.08H13.2Z"></path>
</svg>